<svg xmlns="http://www.w3.org/2000/svg" viewBox="0 0 600 1400" width="600" height="1400">
<defs>
<linearGradient id="blade" x1="0" y1="0" x2="0" y2="1">
<stop offset="0" stop-color="#f4f4f6"/><stop offset=".45" stop-color="#8b8d96"/>
<stop offset=".55" stop-color="#1c1d22"/><stop offset="1" stop-color="#8b8d96"/>
</linearGradient>
<linearGradient id="bladeV" x1="0" y1="0" x2="1" y2="0">
<stop offset="0" stop-color="#2a2b31"/><stop offset=".48" stop-color="#c9cad1"/><stop offset=".52" stop-color="#56585f"/><stop offset="1" stop-color="#121317"/>
</linearGradient>
<linearGradient id="guard" x1="0" y1="0" x2="1" y2="0">
<stop offset="0" stop-color="#1b1b1f"/><stop offset=".5" stop-color="#7d7f88"/><stop offset="1" stop-color="#141417"/>
</linearGradient>
<radialGradient id="aura" cx=".5" cy=".3" r=".5"><stop offset="0" stop-color="#ff1e35" stop-opacity=".5"/><stop offset="1" stop-color="#ff1e35" stop-opacity="0"/></radialGradient>
<linearGradient id="sink" x1="0" y1="0" x2="0" y2="1"><stop offset=".78" stop-color="#000" stop-opacity="0"/><stop offset="1" stop-color="#000"/></linearGradient>
</defs>
<rect x="284" y="60" width="32" height="270" rx="6" fill="#16161a"/>
<path d="M284 80 L316 92" stroke="#3a3b42" stroke-width="5"/><path d="M284 100 L316 112" stroke="#3a3b42" stroke-width="5"/><path d="M284 120 L316 132" stroke="#3a3b42" stroke-width="5"/><path d="M284 140 L316 152" stroke="#3a3b42" stroke-width="5"/><path d="M284 160 L316 172" stroke="#3a3b42" stroke-width="5"/><path d="M284 180 L316 192" stroke="#3a3b42" stroke-width="5"/><path d="M284 200 L316 212" stroke="#3a3b42" stroke-width="5"/><path d="M284 220 L316 232" stroke="#3a3b42" stroke-width="5"/><path d="M284 240 L316 252" stroke="#3a3b42" stroke-width="5"/><path d="M284 260 L316 272" stroke="#3a3b42" stroke-width="5"/><path d="M284 280 L316 292" stroke="#3a3b42" stroke-width="5"/><path d="M284 300 L316 312" stroke="#3a3b42" stroke-width="5"/>
<path d="M300 10 l26 30 -26 30 -26 -30z" fill="url(#guard)" stroke="#c8102e" stroke-width="2"/>
<path d="M120 330 C180 300 240 320 300 300 C360 320 420 300 480 330 L460 370 C400 360 360 380 300 390 C240 380 200 360 140 370Z" fill="url(#guard)"/>
<path d="M300 300 l20 45 -20 45 -20 -45z" fill="#c8102e"/>
<path d="M250 390 L350 390 L338 1300 L300 1390 L262 1300Z" fill="url(#bladeV)"/>
<path d="M300 400 L300 1360" stroke="#000" stroke-opacity=".4" stroke-width="3"/>
<path d="M262 1300 L300 1390 L338 1300" fill="none" stroke="#ff2a3d" stroke-opacity=".5" stroke-width="2"/>
</svg>
