<svg xmlns="http://www.w3.org/2000/svg" viewBox="0 0 1000 1000" width="1000" height="1000">
<defs>
<radialGradient id="body" cx=".5" cy=".38" r=".6"><stop offset="0" stop-color="#3a0a10"/><stop offset=".6" stop-color="#0b0507"/><stop offset="1" stop-color="#030203"/></radialGradient>
<filter id="g"><feGaussianBlur stdDeviation="5"/></filter>
<filter id="tex"><feTurbulence type="fractalNoise" baseFrequency=".035" numOctaves="3" seed="5"/><feColorMatrix values="0 0 0 0 .6  0 0 0 0 .05  0 0 0 0 .08  0 0 0 .55 -.28"/><feComposite in2="SourceGraphic" operator="in"/></filter>
<clipPath id="c"><path d="M500 251 L503.2 249.2 L506.4 247.4 L509.6 246.3 L512.8 246.6 L516 248.3 L518.9 251.3 L524.3 226.6 L527.6 229.4 L530.9 230.8 L534.5 229.8 L538.6 226.3 L543.1 220.1 L548.2 211.6 L554 201.1 L560.5 188.6 L567.8 173.8 L576.2 156.1 L585.9 135 L597.2 110.4 L609.8 83.5 L623.3 56.8 L636.5 33.8 L648.2 18.3 L657 13.4 L662 20.7 L662.7 39.5 L659.7 67.5 L653.8 100.9 L646.4 135.6 L638.8 168.3 L632.2 196.4 L627.4 218.6 L624.8 234.8 L624.4 245.4 L626 251.6 L629.2 254.7 L633.2 256.1 L637.4 257.3 L641.2 259.3 L644.1 263 L645.8 268.6 L646.2 275.9 L645.8 284.3 L644.8 293.1 L643.9 301.5 L643.5 308.8 L643.8 314.9 L645 319.8 L646.8 323.9 L648.7 327.8 L650.4 331.9 L651.5 336.6 L651.8 342.1 L651.5 348.1 L650.8 354.3 L650.4 360 L650.6 365 L652.1 368.9 L654.8 371.6 L658.6 373.6 L663.1 375.3 L667.5 377.1 L671.1 379.7 L673.5 383.2 L674.5 387.7 L674 393.1 L672.5 398.9 L670.8 404.8 L669.5 410.2 L669.3 415 L670.5 419 L673 422.4 L676.4 425.6 L680.3 428.6 L684.1 431.9 L687.1 435.6 L689.3 439.7 L690.7 444 L692 448.5 L693.6 452.9 L696.4 457.1 L701 461 L707.7 464.8 L716.5 468.6 L727.2 472.6 L739.4 476.9 L752.5 481.7 L766.3 487.2 L780.7 493.2 L795.9 500 L812.1 507.5 L829.9 515.9 L849.2 525.3 L869.9 535.7 L891.2 547.2 L912.1 559.8 L931 573 L946.2 586.5 L956.2 599.7 L960 611.9 L957 622.6 L947.6 631.3 L932.5 637.8 L913.3 642.2 L891.4 644.7 L868.5 645.8 L845.9 645.9 L824.6 645.5 L805.3 645 L788.3 644.8 L773.9 645.1 L762.4 646.3 L754.2 648.9 L749.8 653.5 L749.6 660.6 L754.1 671 L763 684.9 L775.6 702.2 L790.4 722.2 L805.6 743.5 L818.9 764.4 L828.1 782.9 L831.6 797.1 L828.5 805.8 L819 808.2 L804 804.8 L785.2 796.6 L764.8 785.5 L744.6 773.3 L726.2 761.9 L710.6 752.6 L698.1 746.1 L688.3 742.4 L680.7 740.8 L674.3 740.6 L668.6 740.9 L662.9 741.1 L657.2 740.9 L651.6 740.6 L646.4 740.7 L641.9 741.8 L638.4 744.4 L635.8 748.7 L634.1 754.6 L632.7 761.6 L631.4 768.8 L629.5 775.2 L626.9 780.2 L623.4 783.3 L619 784.5 L614.1 784.1 L609 783 L604 781.8 L599.3 781.1 L595 781.3 L591 782.2 L587.1 783.3 L583.1 783.9 L578.8 783.2 L574 780.7 L568.9 776.2 L563.6 770.1 L558.3 763.2 L553.3 756.4 L548.7 750.8 L544.7 747.3 L541.2 746 L538 747 L535.1 749.4 L532.2 752.2 L529.2 754.5 L526 755.4 L522.6 754.3 L519.2 751.5 L515.7 747.5 L512.3 743.2 L509.1 739.4 L506 736.9 L503 736.2 L500 737 L497 736.2 L494 736.9 L490.9 739.4 L487.7 743.2 L484.3 747.5 L480.8 751.5 L477.4 754.3 L474 755.4 L470.8 754.5 L467.8 752.2 L464.9 749.4 L462 747 L458.8 746 L455.3 747.3 L451.3 750.8 L446.7 756.4 L441.7 763.2 L436.4 770.1 L431.1 776.2 L426 780.7 L421.2 783.2 L416.9 783.9 L412.9 783.3 L409 782.2 L405 781.3 L400.7 781.1 L396 781.8 L391 783 L385.9 784.1 L381 784.5 L376.6 783.3 L373.1 780.2 L370.5 775.2 L368.6 768.8 L367.3 761.6 L365.9 754.6 L364.2 748.7 L361.6 744.4 L358.1 741.8 L353.6 740.7 L348.4 740.6 L342.8 740.9 L337.1 741.1 L331.4 740.9 L325.7 740.6 L319.3 740.8 L311.7 742.4 L301.9 746.1 L289.4 752.6 L273.8 761.9 L255.4 773.3 L235.2 785.5 L214.8 796.6 L196 804.8 L181 808.2 L171.5 805.8 L168.4 797.1 L171.9 782.9 L181.1 764.4 L194.4 743.5 L209.6 722.2 L224.4 702.2 L237 684.9 L245.9 671 L250.4 660.6 L250.2 653.5 L245.8 648.9 L237.6 646.3 L226.1 645.1 L211.7 644.8 L194.7 645 L175.4 645.5 L154.1 645.9 L131.5 645.8 L108.6 644.7 L86.7 642.2 L67.5 637.8 L52.4 631.3 L43 622.6 L40 611.9 L43.8 599.7 L53.8 586.5 L69 573 L87.9 559.8 L108.8 547.2 L130.1 535.7 L150.8 525.3 L170.1 515.9 L187.9 507.5 L204.1 500 L219.3 493.2 L233.7 487.2 L247.5 481.7 L260.6 476.9 L272.8 472.6 L283.5 468.6 L292.3 464.8 L299 461 L303.6 457.1 L306.4 452.9 L308 448.5 L309.3 444 L310.7 439.7 L312.9 435.6 L315.9 431.9 L319.7 428.6 L323.6 425.6 L327 422.4 L329.5 419 L330.7 415 L330.5 410.2 L329.2 404.8 L327.5 398.9 L326 393.1 L325.5 387.7 L326.5 383.2 L328.9 379.7 L332.5 377.1 L336.9 375.3 L341.4 373.6 L345.2 371.6 L347.9 368.9 L349.4 365 L349.6 360 L349.2 354.3 L348.5 348.1 L348.2 342.1 L348.5 336.6 L349.6 331.9 L351.3 327.8 L353.2 323.9 L355 319.8 L356.2 314.9 L356.5 308.8 L356.1 301.5 L355.2 293.1 L354.2 284.3 L353.8 275.9 L354.2 268.6 L355.9 263 L358.8 259.3 L362.6 257.3 L366.8 256.1 L370.8 254.7 L374 251.6 L375.6 245.4 L375.2 234.8 L372.6 218.6 L367.8 196.4 L361.2 168.3 L353.6 135.6 L346.2 100.9 L340.3 67.5 L337.3 39.5 L338 20.7 L343 13.4 L351.8 18.3 L363.5 33.8 L376.7 56.8 L390.2 83.5 L402.8 110.4 L414.1 135 L423.8 156.1 L432.2 173.8 L439.5 188.6 L446 201.1 L451.8 211.6 L456.9 220.1 L461.4 226.3 L465.5 229.8 L469.1 230.8 L472.4 229.4 L475.7 226.6 L481.1 251.3 L484 248.3 L487.2 246.6 L490.4 246.3 L493.6 247.4 L496.8 249.2 L500 251Z"/></clipPath>
</defs>
<path d="M500 251 L503.2 249.2 L506.4 247.4 L509.6 246.3 L512.8 246.6 L516 248.3 L518.9 251.3 L524.3 226.6 L527.6 229.4 L530.9 230.8 L534.5 229.8 L538.6 226.3 L543.1 220.1 L548.2 211.6 L554 201.1 L560.5 188.6 L567.8 173.8 L576.2 156.1 L585.9 135 L597.2 110.4 L609.8 83.5 L623.3 56.8 L636.5 33.8 L648.2 18.3 L657 13.4 L662 20.7 L662.7 39.5 L659.7 67.5 L653.8 100.9 L646.4 135.6 L638.8 168.3 L632.2 196.4 L627.4 218.6 L624.8 234.8 L624.4 245.4 L626 251.6 L629.2 254.7 L633.2 256.1 L637.4 257.3 L641.2 259.3 L644.1 263 L645.8 268.6 L646.2 275.9 L645.8 284.3 L644.8 293.1 L643.9 301.5 L643.5 308.8 L643.8 314.9 L645 319.8 L646.8 323.9 L648.7 327.8 L650.4 331.9 L651.5 336.6 L651.8 342.1 L651.5 348.1 L650.8 354.3 L650.4 360 L650.6 365 L652.1 368.9 L654.8 371.6 L658.6 373.6 L663.1 375.3 L667.5 377.1 L671.1 379.7 L673.5 383.2 L674.5 387.7 L674 393.1 L672.5 398.9 L670.8 404.8 L669.5 410.2 L669.3 415 L670.5 419 L673 422.4 L676.4 425.6 L680.3 428.6 L684.1 431.9 L687.1 435.6 L689.3 439.7 L690.7 444 L692 448.5 L693.6 452.9 L696.4 457.1 L701 461 L707.7 464.8 L716.5 468.6 L727.2 472.6 L739.4 476.9 L752.5 481.7 L766.3 487.2 L780.7 493.2 L795.9 500 L812.1 507.5 L829.9 515.9 L849.2 525.3 L869.9 535.7 L891.2 547.2 L912.1 559.8 L931 573 L946.2 586.5 L956.2 599.7 L960 611.9 L957 622.6 L947.6 631.3 L932.5 637.8 L913.3 642.2 L891.4 644.7 L868.5 645.8 L845.9 645.9 L824.6 645.5 L805.3 645 L788.3 644.8 L773.9 645.1 L762.4 646.3 L754.2 648.9 L749.8 653.5 L749.6 660.6 L754.1 671 L763 684.9 L775.6 702.2 L790.4 722.2 L805.6 743.5 L818.9 764.4 L828.1 782.9 L831.6 797.1 L828.5 805.8 L819 808.2 L804 804.8 L785.2 796.6 L764.8 785.5 L744.6 773.3 L726.2 761.9 L710.6 752.6 L698.1 746.1 L688.3 742.4 L680.7 740.8 L674.3 740.6 L668.6 740.9 L662.9 741.1 L657.2 740.9 L651.6 740.6 L646.4 740.7 L641.9 741.8 L638.4 744.4 L635.8 748.7 L634.1 754.6 L632.7 761.6 L631.4 768.8 L629.5 775.2 L626.9 780.2 L623.4 783.3 L619 784.5 L614.1 784.1 L609 783 L604 781.8 L599.3 781.1 L595 781.3 L591 782.2 L587.1 783.3 L583.1 783.9 L578.8 783.2 L574 780.7 L568.9 776.2 L563.6 770.1 L558.3 763.2 L553.3 756.4 L548.7 750.8 L544.7 747.3 L541.2 746 L538 747 L535.1 749.4 L532.2 752.2 L529.2 754.5 L526 755.4 L522.6 754.3 L519.2 751.5 L515.7 747.5 L512.3 743.2 L509.1 739.4 L506 736.9 L503 736.2 L500 737 L497 736.2 L494 736.9 L490.9 739.4 L487.7 743.2 L484.3 747.5 L480.8 751.5 L477.4 754.3 L474 755.4 L470.8 754.5 L467.8 752.2 L464.9 749.4 L462 747 L458.8 746 L455.3 747.3 L451.3 750.8 L446.7 756.4 L441.7 763.2 L436.4 770.1 L431.1 776.2 L426 780.7 L421.2 783.2 L416.9 783.9 L412.9 783.3 L409 782.2 L405 781.3 L400.7 781.1 L396 781.8 L391 783 L385.9 784.1 L381 784.5 L376.6 783.3 L373.1 780.2 L370.5 775.2 L368.6 768.8 L367.3 761.6 L365.9 754.6 L364.2 748.7 L361.6 744.4 L358.1 741.8 L353.6 740.7 L348.4 740.6 L342.8 740.9 L337.1 741.1 L331.4 740.9 L325.7 740.6 L319.3 740.8 L311.7 742.4 L301.9 746.1 L289.4 752.6 L273.8 761.9 L255.4 773.3 L235.2 785.5 L214.8 796.6 L196 804.8 L181 808.2 L171.5 805.8 L168.4 797.1 L171.9 782.9 L181.1 764.4 L194.4 743.5 L209.6 722.2 L224.4 702.2 L237 684.9 L245.9 671 L250.4 660.6 L250.2 653.5 L245.8 648.9 L237.6 646.3 L226.1 645.1 L211.7 644.8 L194.7 645 L175.4 645.5 L154.1 645.9 L131.5 645.8 L108.6 644.7 L86.7 642.2 L67.5 637.8 L52.4 631.3 L43 622.6 L40 611.9 L43.8 599.7 L53.8 586.5 L69 573 L87.9 559.8 L108.8 547.2 L130.1 535.7 L150.8 525.3 L170.1 515.9 L187.9 507.5 L204.1 500 L219.3 493.2 L233.7 487.2 L247.5 481.7 L260.6 476.9 L272.8 472.6 L283.5 468.6 L292.3 464.8 L299 461 L303.6 457.1 L306.4 452.9 L308 448.5 L309.3 444 L310.7 439.7 L312.9 435.6 L315.9 431.9 L319.7 428.6 L323.6 425.6 L327 422.4 L329.5 419 L330.7 415 L330.5 410.2 L329.2 404.8 L327.5 398.9 L326 393.1 L325.5 387.7 L326.5 383.2 L328.9 379.7 L332.5 377.1 L336.9 375.3 L341.4 373.6 L345.2 371.6 L347.9 368.9 L349.4 365 L349.6 360 L349.2 354.3 L348.5 348.1 L348.2 342.1 L348.5 336.6 L349.6 331.9 L351.3 327.8 L353.2 323.9 L355 319.8 L356.2 314.9 L356.5 308.8 L356.1 301.5 L355.2 293.1 L354.2 284.3 L353.8 275.9 L354.2 268.6 L355.9 263 L358.8 259.3 L362.6 257.3 L366.8 256.1 L370.8 254.7 L374 251.6 L375.6 245.4 L375.2 234.8 L372.6 218.6 L367.8 196.4 L361.2 168.3 L353.6 135.6 L346.2 100.9 L340.3 67.5 L337.3 39.5 L338 20.7 L343 13.4 L351.8 18.3 L363.5 33.8 L376.7 56.8 L390.2 83.5 L402.8 110.4 L414.1 135 L423.8 156.1 L432.2 173.8 L439.5 188.6 L446 201.1 L451.8 211.6 L456.9 220.1 L461.4 226.3 L465.5 229.8 L469.1 230.8 L472.4 229.4 L475.7 226.6 L481.1 251.3 L484 248.3 L487.2 246.6 L490.4 246.3 L493.6 247.4 L496.8 249.2 L500 251Z" fill="url(#body)" stroke="#7a1420" stroke-width="2"/>
<path d="M500 251 L503.2 249.2 L506.4 247.4 L509.6 246.3 L512.8 246.6 L516 248.3 L518.9 251.3 L524.3 226.6 L527.6 229.4 L530.9 230.8 L534.5 229.8 L538.6 226.3 L543.1 220.1 L548.2 211.6 L554 201.1 L560.5 188.6 L567.8 173.8 L576.2 156.1 L585.9 135 L597.2 110.4 L609.8 83.5 L623.3 56.8 L636.5 33.8 L648.2 18.3 L657 13.4 L662 20.7 L662.7 39.5 L659.7 67.5 L653.8 100.9 L646.4 135.6 L638.8 168.3 L632.2 196.4 L627.4 218.6 L624.8 234.8 L624.4 245.4 L626 251.6 L629.2 254.7 L633.2 256.1 L637.4 257.3 L641.2 259.3 L644.1 263 L645.8 268.6 L646.2 275.9 L645.8 284.3 L644.8 293.1 L643.9 301.5 L643.5 308.8 L643.8 314.9 L645 319.8 L646.8 323.9 L648.7 327.8 L650.4 331.9 L651.5 336.6 L651.8 342.1 L651.5 348.1 L650.8 354.3 L650.4 360 L650.6 365 L652.1 368.9 L654.8 371.6 L658.6 373.6 L663.1 375.3 L667.5 377.1 L671.1 379.7 L673.5 383.2 L674.5 387.7 L674 393.1 L672.5 398.9 L670.8 404.8 L669.5 410.2 L669.3 415 L670.5 419 L673 422.4 L676.4 425.6 L680.3 428.6 L684.1 431.9 L687.1 435.6 L689.3 439.7 L690.7 444 L692 448.5 L693.6 452.9 L696.4 457.1 L701 461 L707.7 464.8 L716.5 468.6 L727.2 472.6 L739.4 476.9 L752.5 481.7 L766.3 487.2 L780.7 493.2 L795.9 500 L812.1 507.5 L829.9 515.9 L849.2 525.3 L869.9 535.7 L891.2 547.2 L912.1 559.8 L931 573 L946.2 586.5 L956.2 599.7 L960 611.9 L957 622.6 L947.6 631.3 L932.5 637.8 L913.3 642.2 L891.4 644.7 L868.5 645.8 L845.9 645.9 L824.6 645.5 L805.3 645 L788.3 644.8 L773.9 645.1 L762.4 646.3 L754.2 648.9 L749.8 653.5 L749.6 660.6 L754.1 671 L763 684.9 L775.6 702.2 L790.4 722.2 L805.6 743.5 L818.9 764.4 L828.1 782.9 L831.6 797.1 L828.5 805.8 L819 808.2 L804 804.8 L785.2 796.6 L764.8 785.5 L744.6 773.3 L726.2 761.9 L710.6 752.6 L698.1 746.1 L688.3 742.4 L680.7 740.8 L674.3 740.6 L668.6 740.9 L662.9 741.1 L657.2 740.9 L651.6 740.6 L646.4 740.7 L641.9 741.8 L638.4 744.4 L635.8 748.7 L634.1 754.6 L632.7 761.6 L631.4 768.8 L629.5 775.2 L626.9 780.2 L623.4 783.3 L619 784.5 L614.1 784.1 L609 783 L604 781.8 L599.3 781.1 L595 781.3 L591 782.2 L587.1 783.3 L583.1 783.9 L578.8 783.2 L574 780.7 L568.9 776.2 L563.6 770.1 L558.3 763.2 L553.3 756.4 L548.7 750.8 L544.7 747.3 L541.2 746 L538 747 L535.1 749.4 L532.2 752.2 L529.2 754.5 L526 755.4 L522.6 754.3 L519.2 751.5 L515.7 747.5 L512.3 743.2 L509.1 739.4 L506 736.9 L503 736.2 L500 737 L497 736.2 L494 736.9 L490.9 739.4 L487.7 743.2 L484.3 747.5 L480.8 751.5 L477.4 754.3 L474 755.4 L470.8 754.5 L467.8 752.2 L464.9 749.4 L462 747 L458.8 746 L455.3 747.3 L451.3 750.8 L446.7 756.4 L441.7 763.2 L436.4 770.1 L431.1 776.2 L426 780.7 L421.2 783.2 L416.9 783.9 L412.9 783.3 L409 782.2 L405 781.3 L400.7 781.1 L396 781.8 L391 783 L385.9 784.1 L381 784.5 L376.6 783.3 L373.1 780.2 L370.5 775.2 L368.6 768.8 L367.3 761.6 L365.9 754.6 L364.2 748.7 L361.6 744.4 L358.1 741.8 L353.6 740.7 L348.4 740.6 L342.8 740.9 L337.1 741.1 L331.4 740.9 L325.7 740.6 L319.3 740.8 L311.7 742.4 L301.9 746.1 L289.4 752.6 L273.8 761.9 L255.4 773.3 L235.2 785.5 L214.8 796.6 L196 804.8 L181 808.2 L171.5 805.8 L168.4 797.1 L171.9 782.9 L181.1 764.4 L194.4 743.5 L209.6 722.2 L224.4 702.2 L237 684.9 L245.9 671 L250.4 660.6 L250.2 653.5 L245.8 648.9 L237.6 646.3 L226.1 645.1 L211.7 644.8 L194.7 645 L175.4 645.5 L154.1 645.9 L131.5 645.8 L108.6 644.7 L86.7 642.2 L67.5 637.8 L52.4 631.3 L43 622.6 L40 611.9 L43.8 599.7 L53.8 586.5 L69 573 L87.9 559.8 L108.8 547.2 L130.1 535.7 L150.8 525.3 L170.1 515.9 L187.9 507.5 L204.1 500 L219.3 493.2 L233.7 487.2 L247.5 481.7 L260.6 476.9 L272.8 472.6 L283.5 468.6 L292.3 464.8 L299 461 L303.6 457.1 L306.4 452.9 L308 448.5 L309.3 444 L310.7 439.7 L312.9 435.6 L315.9 431.9 L319.7 428.6 L323.6 425.6 L327 422.4 L329.5 419 L330.7 415 L330.5 410.2 L329.2 404.8 L327.5 398.9 L326 393.1 L325.5 387.7 L326.5 383.2 L328.9 379.7 L332.5 377.1 L336.9 375.3 L341.4 373.6 L345.2 371.6 L347.9 368.9 L349.4 365 L349.6 360 L349.2 354.3 L348.5 348.1 L348.2 342.1 L348.5 336.6 L349.6 331.9 L351.3 327.8 L353.2 323.9 L355 319.8 L356.2 314.9 L356.5 308.8 L356.1 301.5 L355.2 293.1 L354.2 284.3 L353.8 275.9 L354.2 268.6 L355.9 263 L358.8 259.3 L362.6 257.3 L366.8 256.1 L370.8 254.7 L374 251.6 L375.6 245.4 L375.2 234.8 L372.6 218.6 L367.8 196.4 L361.2 168.3 L353.6 135.6 L346.2 100.9 L340.3 67.5 L337.3 39.5 L338 20.7 L343 13.4 L351.8 18.3 L363.5 33.8 L376.7 56.8 L390.2 83.5 L402.8 110.4 L414.1 135 L423.8 156.1 L432.2 173.8 L439.5 188.6 L446 201.1 L451.8 211.6 L456.9 220.1 L461.4 226.3 L465.5 229.8 L469.1 230.8 L472.4 229.4 L475.7 226.6 L481.1 251.3 L484 248.3 L487.2 246.6 L490.4 246.3 L493.6 247.4 L496.8 249.2 L500 251Z" fill="#000" filter="url(#tex)"/>
<g clip-path="url(#c)" fill="none" stroke="#7a1420" stroke-width="2" opacity=".55"><path d="M430 470 Q500 450 570 470" /><path d="M434 496 Q500 476 566 496" /><path d="M438 522 Q500 502 562 522" /><path d="M442 548 Q500 528 558 548" /><path d="M446 574 Q500 554 554 574" /><path d="M500 388.5 L500 760"/></g>
<g fill="#ff2a3d" filter="url(#g)"><ellipse cx="500" cy="358.5" rx="16" ry="6"/></g>
<g fill="#ffd0d0"><ellipse cx="500" cy="358.5" rx="16" ry="6"/></g>
</svg>
